# xmcd
# Track frame offsets:
# 150
# 10775
# 23177
# 38257
# 51542
# 64682
# 77940
# 89172
# 105306
# 115377
# 127844
# 138753
#
# Disc length: 1982 seconds
# Revision: 0
# Processed by: cddbd v1.5.2PL0 Copyright (c) Steve Scherf et al.
# Submitted via: VisiTrax 2.10.3.257 - For more info visit www.synapsa.com
#
DISCID=9407bc0c
DTITLE=Gene Stuart - Until the next Time
DYEAR=2007
DGENRE=country
TTITLE0=Out of Sight....out of mind
TTITLE1=you`re Still The Only One I´ll ever Love
TTITLE2=It`s time to pay the Fiddler
TTITLE3=Not Until The Next Time
TTITLE4=When I Found Her
TTITLE5=You Never Did Give Up On Me
TTITLE6=I`ve Had All The Hurt I Can Take
TTITLE7=Tonight I Read Your Love Letters
TTITLE8=Call Him Me
TTITLE9=The Girl In My Home Town
TTITLE10=Honky Tonk Season
TTITLE11=A Heartful of Memories
EXTD=
EXTT0=
EXTT1=
EXTT2=
EXTT3=
EXTT4=
EXTT5=
EXTT6=
EXTT7=
EXTT8=
EXTT9=
EXTT10=
EXTT11=
PLAYORDER=
